<svg xmlns="http://www.w3.org/2000/svg" width="75.042" height="74.868" viewBox="0 0 75.042 74.868">
  <g id="icone-finans" transform="translate(0 -0.399)">
    <path id="Caminho_1" data-name="Caminho 1" d="M71.236,67.654H7.613V4.205A3.806,3.806,0,1,0,0,4.205V71.461a3.806,3.806,0,0,0,3.806,3.806H71.236a3.806,3.806,0,1,0,0-7.613Z" fill="#fff"/>
    <path id="Caminho_2" data-name="Caminho 2" d="M61.862,108.363a3.8,3.8,0,0,0,2.808-1.235l10.6-11.576,18.965,8.329a3.806,3.806,0,0,0,4.6-1.231L110.47,86.822l.977,6.813a3.806,3.806,0,0,0,7.536-1.081L116.671,76.44a3.807,3.807,0,0,0-4.308-3.227L96.249,75.523a3.806,3.806,0,1,0,1.081,7.536l7.219-1.035L94.508,95.683l-18.67-8.2A3.807,3.807,0,0,0,71.5,88.4L59.056,101.985a3.807,3.807,0,0,0,2.806,6.378Z" transform="translate(-45.429 -56.945)" fill="#fff"/>
  </g>
</svg>
